# xmcd
#
# Track frame offsets: 
#        183
#        12585
#        24413
#        36235
#        48828
#        62623
#        75465
#        87323
#        99625
#        110990
#        124630
#        137635
#        149820
#        160973
#        172330
#        184610
#        194335
#        206238
#        218320
#        228183
#        240710
#        251825
#        263570
#        274483
#        286870
#        300163
#        312080
#
# Disc length: 4314 seconds
#
# Revision: 1
# Processed by: cddbd v1.5.2PL0 Copyright (c) Steve Scherf et al.
# Submitted via: ExactAudioCopyFreeDBPlugin 1.0
#
DISCID=8510d81b
DTITLE=Buddy Johnson - Buddy and Ella Johnson:  1953-1964 [Bear Family b
DTITLE=ox set]
DYEAR=1992
DGENRE=Rhythm and Blues
TTITLE0=(Gotta Go) Upside Your Head
TTITLE1=Someday (alternate take)
TTITLE2=Someday
TTITLE3=Alright, Okay, You Win
TTITLE4=If You Would Only Say You're Sorry
TTITLE5=It's About to Break My Heart in Two
TTITLE6=It's Obdacious
TTITLE7=Save Your Love for Me
TTITLE8=So Good
TTITLE9=Gone Walkin'
TTITLE10=Doot Doot Dow
TTITLE11=I Don't Want Nobody (To Have My Love But You)
TTITLE12=You Got it Made
TTITLE13=Bring it on Home to Me
TTITLE14=Buddy's Boogie
TTITLE15=Why Don'tcha Stop It
TTITLE16=I'll Dearly Love You
TTITLE17=Kool Kitty
TTITLE18=What a Day
TTITLE19=Goodbye Baby Here I Go
TTITLE20=That's What You Gotta Do
TTITLE21=I Still Love You
TTITLE22=Oh! Baby Don't You Know
TTITLE23=You'd Better Believe Me
TTITLE24=You're Everything My Heart Desires
TTITLE25=Rock On (alternate take)
TTITLE26=Rock On
EXTD=
EXTT0=
EXTT1=
EXTT2=
EXTT3=
EXTT4=
EXTT5=
EXTT6=
EXTT7=
EXTT8=
EXTT9=
EXTT10=
EXTT11=
EXTT12=
EXTT13=
EXTT14=
EXTT15=
EXTT16=
EXTT17=
EXTT18=
EXTT19=
EXTT20=
EXTT21=
EXTT22=
EXTT23=
EXTT24=
EXTT25=
EXTT26=
PLAYORDER=
